{"title":"Open Windows (2014) Dual Audio WEB-DL 720p ","uid":11293833,"size":3382321544,"categoryP":"video","categoryS":"hd___movies","magnet":"?xt=urn:btih:89855f90c02b9d3204b83eced3e9a3c1b70a26e3&amp;dn=Open+Windows+%282014%29+Dual+Audio+WEB-DL+720p+&amp;tr=udp%3A%2F%2Ftracker.openbittorrent.com%3A80&amp;tr=udp%3A%2F%2Fopen.demonii.com%3A1337&amp;tr=udp%3A%2F%2Ftracker.coppersurfer.tk%3A6969&amp;tr=udp%3A%2F%2Fexodus.desync.com%3A6969","seeders":20,"leechers":0,"uploader":"darkj6","files":-1,"time":1414359326,"description":" ______   _______  ______    ___   _      ___  --------|\n|      | |   _   ||    _ |  |   | | |    |   ||   |----|    \n|  _    ||  |_|  ||   | ||  |   |_| |    |   ||   |___ \n| | |   ||       ||   |_||_ |      _|    |   ||    _  |\n| |_|   ||       ||    __  ||     |_  ___|   ||   | | |\n|       ||   _   ||   |  | ||    _  ||       ||   |_| |\n|______| |__| |__||___|  |_||___| |_||_______||_______|\n                                                                                      &lt;a href=&quot;\nhttps://thepiratebay.se/user/darkj6/&quot; rel=&quot;nofollow&quot; target=&quot;_NEW&quot;&gt;\nhttps://thepiratebay.se/user/darkj6/&lt;/a&gt;\n\nJoin ThePirateBay Forum:\n                                                                                                               &lt;a href=&quot;\nhttps://forum.suprbay.org/member.php?action=register&amp;referrer=908&quot; rel=&quot;nofollow&quot; target=&quot;_NEW&quot;&gt;\nhttps://forum.suprbay.org/member.php?action=register&amp;referrer=908&lt;/a&gt;\n\n &lt;a href=&quot;\nhttp://www.imdb.com/title/tt2409818/&quot; rel=&quot;nofollow&quot; target=&quot;_NEW&quot;&gt;\nhttp://www.imdb.com/title/tt2409818/&lt;/a&gt;\n\nFormat : MKV (H.264) \n\nQuality : WEB-DL 720p \n\nVideo : 3814 Kb / s, 1280x718 \n\nAudio : Russian: AC3, 192 kb / s (2 ch) \n\n        English: AC3, 384 kb / s (6 ch) \n\nSubtitles : English\n &lt;a href=&quot;\nhttp://you-logo.ru/show-image.php?id=7ca0da356afff6c286dacab02890e0bd&quot; rel=&quot;nofollow&quot; target=&quot;_NEW&quot;&gt;\nhttp://you-logo.ru/show-image.php?id=7ca0da356afff6c286dacab02890e0bd&lt;/a&gt;\n &lt;a href=&quot;\nhttp://you-logo.ru/show-image.php?id=ecf018e1ededf7f5d7382a6f886696b8&quot; rel=&quot;nofollow&quot; target=&quot;_NEW&quot;&gt;\nhttp://you-logo.ru/show-image.php?id=ecf018e1ededf7f5d7382a6f886696b8&lt;/a&gt;\n &lt;a href=&quot;\nhttp://you-logo.ru/show-image.php?id=5eae5696206288e525d4d7107f6f4263&quot; rel=&quot;nofollow&quot; target=&quot;_NEW&quot;&gt;\nhttp://you-logo.ru/show-image.php?id=5eae5696206288e525d4d7107f6f4263&lt;/a&gt;\n &lt;a href=&quot;\nhttp://you-logo.ru/show-image.php?id=96f0d52b13bdf8b27037ba3297cf0f0d&quot; rel=&quot;nofollow&quot; target=&quot;_NEW&quot;&gt;\nhttp://you-logo.ru/show-image.php?id=96f0d52b13bdf8b27037ba3297cf0f0d&lt;/a&gt;\n\n\nFormat : Matroska\nFormat version : Version 4 / Version 2\nFile size : 3.15 GiB\nDuration : 1h 40mn\nOverall bit rate : 4 479 Kbps\nEncoded date : UTC 2014-10-25 10:36:08\nWriting application : mkvmerge v7.0.0 ('Where We Going') 64bit built on Jun 9 2014 15:16:27\nWriting library : libebml v1.3.0 + libmatroska v1.4.1\nDURATION : 01:40:40.512000000\nNUMBER_OF_FRAMES : 188766\nNUMBER_OF_BYTES : 144972288\n_STATISTICS_WRITING_APP : mkvmerge v7.0.0 ('Where We Going') 64bit built on Jun 9 2014 15:16:27\n_STATISTICS_WRITING_DATE_UTC : 2014-10-25 10:36:08\n_STATISTICS_TAGS : BPS DURATION NUMBER_OF_FRAMES NUMBER_OF_BYTES\n\nVideo\nID : 1\nFormat : AVC\nFormat/Info : Advanced Video Codec\nFormat profile : &lt;a class=&quot;__cf_email__&quot; href=&quot;/cdn-cgi/l/email-protection&quot; data-cfemail=&quot;cd85a4aaa58d81fee3fc&quot;&gt;[email&amp;#160;protected]&lt;/a&gt;&lt;script cf-hash='f9e31' type=&quot;text/javascript&quot;&gt;\n/* &lt;![CDATA[ */!function(){try{var t=&quot;currentScript&quot;in document?document.currentScript:function(){for(var t=document.getElementsByTagName(&quot;script&quot;),e=t.length;e--;)if(t[e].getAttribute(&quot;cf-hash&quot;))return t[e]}();if(t&amp;&amp;t.previousSibling){var e,r,n,i,c=t.previousSibling,a=c.getAttribute(&quot;data-cfemail&quot;);if(a){for(e=&quot;&quot;,r=parseInt(a.substr(0,2),16),n=2;a.length-n;n+=2)i=parseInt(a.substr(n,2),16)^r,e+=String.fromCharCode(i);e=document.createTextNode(e),c.parentNode.replaceChild(e,c)}}}catch(u){}}();/* ]]&gt; */&lt;/script&gt;\nFormat settings, CABAC : No\nFormat settings, ReFrames : 2 frames\nCodec ID : V_MPEG4/ISO/AVC\nDuration : 1h 40mn\nBit rate : 3 814 Kbps\nWidth : 1 280 pixels\nHeight : 718 pixels\nDisplay aspect ratio : 16:9\nFrame rate mode : Constant\nFrame rate : 24.000 fps\nColor space : YUV\nChroma subsampling : 4:2:0\nBit depth : 8 bits\nScan type : Progressive\nBits/(Pixel*Frame) : 0.173\nStream size : 2.68 GiB (85%)\nLanguage : English\nDefault : Yes\nForced : No\nColor primaries : BT.709\nTransfer characteristics : BT.709\nMatrix coefficients : BT.709\n\nAudio #1\nID : 2\nFormat : AC-3\nFormat/Info : Audio Coding 3\nMode extension : CM (complete main)\nFormat settings, Endianness : Big\nCodec ID : A_AC3\nDuration : 1h 40mn\nBit rate mode : Constant\nBit rate : 192 Kbps\nChannel(s) : 2 channels\nChannel positions : Front: L R\nSampling rate : 48.0 KHz\nBit depth : 16 bits\nCompression mode : Lossy\nStream size : 138 MiB (4%)\nDefault : Yes\nForced : No\n\nAudio #2\nID : 3\nFormat : AC-3\nFormat/Info : Audio Coding 3\nMode extension : CM (complete main)\nFormat settings, Endianness : Big\nCodec ID : A_AC3\nDuration : 1h 40mn\nBit rate mode : Constant\nBit rate : 384 Kbps\nChannel(s) : 6 channels\nChannel positions : Front: L C R, Side: L R, LFE\nSampling rate : 48.0 KHz\nBit depth : 16 bits\nCompression mode : Lossy\nStream size : 277 MiB (9%)\nLanguage : English\nDefault : No\nForced : No\n\nText\nID : 4\nFormat : UTF-8\nCodec ID : S_TEXT/UTF8\nCodec ID/Info : UTF-8 Plain Text\nLanguage : English\nDefault : No\nForced : No\n\nMenu\n00:00:00.000 : en:Chapter 1\n00:10:00.000 : en:Chapter 2\n00:20:00.000 : en:Chapter 3\n00:30:00.000 : en:Chapter 4\n00:40:00.000 : en:Chapter 5\n00:50:00.000 : en:Chapter 6\n01:00:00.000 : en:Chapter 7\n01:10:00.000 : en:Chapter 8\n01:20:00.000 : en:Chapter 9\n01:30:00.000 : en:Chapter 10","torrent":{"xt":"urn:btih:89855f90c02b9d3204b83eced3e9a3c1b70a26e3","amp;dn":"Open+Windows+%282014%29+Dual+Audio+WEB-DL+720p+","amp;tr":["udp%3A%2F%2Ftracker.openbittorrent.com%3A80","udp%3A%2F%2Fopen.demonii.com%3A1337","udp%3A%2F%2Ftracker.coppersurfer.tk%3A6969","udp%3A%2F%2Fexodus.desync.com%3A6969"],"infoHash":"89855f90c02b9d3204b83eced3e9a3c1b70a26e3","infoHashBuffer":{"type":"Buffer","data":[137,133,95,144,192,43,157,50,4,184,62,206,211,233,163,193,183,10,38,227]},"announce":[],"urlList":[]}}